<?xml version="1.0" standalone="no"?>
<!DOCTYPE svg PUBLIC "-//W3C//DTD SVG 20010904//EN"
 "http://www.w3.org/TR/2001/REC-SVG-20010904/DTD/svg10.dtd">
<svg version="1.0" xmlns="http://www.w3.org/2000/svg"
 width="260.000000pt" height="260.000000pt" viewBox="0 0 260.000000 260.000000"
 preserveAspectRatio="xMidYMid meet">
<metadata>
Created by potrace 1.14, written by Peter Selinger 2001-2017
</metadata>
<g transform="translate(0.000000,260.000000) scale(0.100000,-0.100000)"
fill="#000000" stroke="none">
<path d="M1120 2590 c0 -5 7 -7 15 -4 8 4 15 8 15 10 0 2 -7 4 -15 4 -8 0 -15
-4 -15 -10z"/>
<path d="M1346 2571 c-27 -29 -28 -31 -21 -113 4 -52 3 -93 -4 -111 -13 -34
-54 -52 -83 -36 -18 10 -19 8 -13 -12 18 -57 37 -90 48 -85 7 2 29 10 50 17
23 8 36 17 33 25 -3 7 4 24 15 38 26 34 51 105 43 128 -3 11 -20 28 -36 38
l-31 19 56 27 c41 21 59 36 67 57 5 17 10 32 10 33 0 2 -24 4 -53 4 -46 0 -57
-4 -81 -29z"/>
<path d="M94 2558 l-19 -23 23 19 c21 18 27 26 19 26 -2 0 -12 -10 -23 -22z"/>
<path d="M578 2563 c7 -3 16 -2 19 1 4 3 -2 6 -13 5 -11 0 -14 -3 -6 -6z"/>
<path d="M625 2550 c16 -6 17 -9 5 -13 -94 -31 -95 -32 -98 -68 -2 -25 3 -40
17 -53 19 -17 20 -17 36 14 23 44 59 59 85 35 11 -10 20 -25 20 -34 1 -18 60
46 60 65 0 19 -33 41 -82 53 -54 13 -72 13 -43 1z"/>
<path d="M33 2537 c-29 -9 -33 -14 -33 -46 l0 -36 36 37 c43 43 42 58 -3 45z"/>
<path d="M241 2420 c-40 -33 -93 -74 -117 -92 -34 -24 -42 -36 -39 -52 5 -17
-2 -24 -36 -38 -42 -18 -42 -18 -24 2 19 21 7 28 -13 8 -18 -18 -16 -117 3
-124 8 -3 39 6 69 19 31 14 58 22 61 17 7 -11 1 -14 -58 -30 -26 -7 -50 -16
-53 -21 -8 -14 52 -39 93 -39 89 0 302 84 289 114 -2 6 -21 47 -40 92 -20 44
-42 108 -48 142 l-13 62 -74 -60z"/>
<path d="M931 2285 c-1 -5 8 -23 19 -39 l19 -30 -29 -17 c-30 -19 -50 -68 -50
-126 0 -27 -4 -33 -22 -33 -21 0 -20 -2 9 -32 86 -91 103 -153 57 -208 -25
-30 -26 -31 -9 -50 22 -24 43 -25 72 -5 19 14 27 13 78 -7 31 -11 52 -24 48
-29 -10 -9 -189 -66 -223 -71 -20 -2 -29 5 -48 40 l-24 42 24 21 c20 18 21 20
3 14 -11 -4 -93 -19 -182 -33 -161 -27 -163 -27 -163 -52 0 -19 6 -26 22 -27
32 -3 48 -30 48 -79 0 -24 5 -46 10 -49 6 -3 10 -1 10 4 0 18 52 12 67 -6 33
-42 153 -217 153 -223 0 -4 -20 -11 -44 -14 l-44 -7 16 -49 15 -49 48 6 c55 7
70 -9 50 -53 -10 -22 -2 -18 51 22 35 26 65 49 68 51 2 2 -1 12 -8 21 -6 9
-25 44 -40 77 -16 33 -54 97 -85 143 -43 62 -52 82 -39 82 10 0 29 -21 46 -53
40 -70 152 -182 191 -190 24 -4 46 5 115 49 47 29 101 59 120 65 19 6 47 23
61 36 l27 25 54 -56 c45 -47 60 -56 89 -56 69 1 116 52 151 165 18 55 22 96
23 191 l0 121 89 6 c71 4 92 9 108 25 24 24 19 66 -9 76 -10 4 -106 14 -215
23 l-197 17 -18 62 c-9 35 -20 60 -24 56 -3 -4 -13 -26 -23 -50 -14 -38 -15
-46 -1 -72 33 -63 9 -148 -76 -273 -35 -51 -39 -63 -30 -83 9 -20 3 -33 -48
-104 -60 -84 -114 -130 -152 -130 -25 0 -112 84 -141 137 l-18 30 99 32 c54
17 115 38 135 46 32 14 35 18 26 36 -8 15 -8 34 -1 70 10 47 8 61 -31 187 -23
75 -43 138 -44 140 -1 2 -21 -2 -43 -8 -82 -22 -136 41 -75 89 15 11 33 21 40
21 8 0 14 3 14 8 0 12 -119 138 -119 127z m655 -639 c-7 -75 -28 -147 -51
-182 -16 -25 -17 -25 -36 -8 -10 9 -27 32 -38 50 l-20 33 72 85 c39 48 74 86
76 86 2 0 1 -29 -3 -64z m-828 -1 c11 -23 10 -25 -17 -25 -16 0 -34 7 -41 15
-10 12 -8 16 11 24 34 14 35 14 47 -14z"/>
<path d="M531 2254 c0 -11 3 -14 6 -6 3 7 2 16 -1 19 -3 4 -6 -2 -5 -13z"/>
<path d="M797 2219 c-83 -42 -96 -66 -34 -62 53 3 105 29 119 58 20 44 -2 46
-85 4z"/>
<path d="M591 2121 c-12 -8 -11 -15 7 -43 l22 -33 0 43 c0 43 -5 48 -29 33z"/>
<path d="M300 1982 c-52 -32 -115 -71 -139 -87 l-45 -30 80 -3 c43 -2 83 -7
88 -12 14 -14 -21 -49 -44 -43 -10 3 -26 1 -36 -5 -12 -7 -30 -4 -61 10 -25
11 -46 18 -48 16 -2 -1 3 -18 11 -36 13 -32 15 -33 56 -28 24 3 87 8 140 12
54 3 100 9 102 12 2 4 7 62 11 130 6 101 5 122 -7 122 -7 0 -56 -26 -108 -58z"/>
<path d="M518 1903 c-3 -54 -4 -100 -3 -101 2 -2 22 -1 44 3 l41 7 0 51 c-1
46 -6 57 -39 95 l-38 44 -5 -99z"/>
<path d="M14 1965 c-18 -15 -19 -15 0 -29 16 -13 22 -13 47 6 21 16 26 24 17
30 -20 12 -42 10 -64 -7z"/>
<path d="M717 1951 c-9 -40 -31 -63 -60 -63 -35 0 -35 -2 8 -66 1 -1 25 3 54
9 43 9 50 13 40 25 -19 23 -4 27 31 9 17 -9 40 -13 51 -10 19 6 19 7 2 36 -11
19 -25 29 -41 29 -13 0 -36 13 -52 28 l-28 29 -5 -26z"/>
<path d="M252 1670 c-45 -4 -85 -10 -89 -13 -8 -9 39 -167 50 -167 6 0 30 16
53 36 24 19 44 32 44 28 0 -5 -14 -51 -32 -105 -30 -93 -31 -98 -18 -159 7
-35 23 -74 36 -89 l22 -26 7 27 c4 16 4 35 1 45 -4 9 11 71 33 137 29 91 41
143 44 209 l5 87 -37 -1 c-20 -1 -73 -5 -119 -9z"/>
<path d="M7 1653 c-4 -3 -7 -78 -7 -166 l0 -159 37 27 36 28 38 -44 c21 -24
39 -39 39 -34 0 11 -32 126 -76 273 -19 63 -29 82 -43 82 -10 0 -21 -3 -24 -7z"/>
<path d="M670 1406 c0 -2 11 -28 25 -58 l25 -53 0 35 c0 35 -23 80 -41 80 -5
0 -9 -2 -9 -4z"/>
<path d="M567 1329 c-3 -19 -13 -109 -23 -200 l-18 -166 25 -31 c13 -17 30
-29 37 -27 20 7 122 87 122 96 0 5 -12 11 -27 15 -53 11 -72 23 -79 51 -6 23
-2 32 29 58 l36 31 -33 75 c-18 41 -39 87 -48 103 l-15 29 -6 -34z"/>
<path d="M57 999 l-58 -41 3 -206 c3 -199 4 -209 29 -263 29 -61 54 -76 88
-52 29 20 26 57 -9 128 -39 79 -39 145 -1 296 25 102 31 180 12 178 -3 0 -32
-18 -64 -40z m13 -138 c-11 -21 -40 -29 -40 -12 0 9 43 41 48 36 2 -2 -1 -13
-8 -24z"/>
<path d="M842 968 c-14 -14 -16 -68 -3 -68 5 0 11 3 14 8 2 4 2 0 -1 -8 -6
-18 -7 -37 -4 -110 l3 -55 43 47 c30 33 48 64 59 105 10 33 17 62 17 65 0 6
-80 28 -102 28 -8 0 -19 -5 -26 -12z"/>
<path d="M677 840 c-25 -20 -26 -22 -11 -46 9 -13 20 -24 24 -24 9 0 25 79 18
86 -3 2 -17 -5 -31 -16z"/>
<path d="M538 707 c-15 -29 -31 -51 -37 -50 -5 2 -17 -22 -26 -53 -13 -45 -14
-62 -4 -92 12 -40 99 -195 105 -189 12 12 30 97 22 99 -6 2 -7 23 -2 53 6 45
8 47 17 25 9 -22 12 -16 30 57 l21 82 -40 47 c-21 26 -43 53 -49 60 -7 10 -17
0 -37 -39z"/>
<path d="M290 740 c0 -8 5 -22 10 -30 9 -13 10 -13 10 0 0 8 -5 22 -10 30 -9
13 -10 13 -10 0z"/>
<path d="M180 705 c0 -8 4 -15 10 -15 5 0 7 7 4 15 -4 8 -8 15 -10 15 -2 0 -4
-7 -4 -15z"/>
<path d="M845 627 c-4 -22 -3 -47 3 -60 10 -22 10 -21 17 6 4 16 3 43 -2 60
l-10 32 -8 -38z"/>
<path d="M375 420 c4 -19 16 -44 26 -55 20 -20 20 -20 8 15 -7 19 -19 44 -26
55 -14 18 -14 17 -8 -15z"/>
<path d="M820 418 c0 -9 5 -20 10 -23 13 -8 13 5 0 25 -8 13 -10 13 -10 -2z"/>
<path d="M776 358 c-29 -81 -29 -85 -11 -63 29 35 42 69 36 93 -5 19 -9 15
-25 -30z"/>
<path d="M50 280 c0 -45 3 -52 26 -60 34 -13 33 -14 44 15 25 66 24 71 -18 83
-22 7 -42 12 -46 12 -3 0 -6 -23 -6 -50z"/>
<path d="M230 244 c-22 -58 -23 -72 -1 -79 18 -5 19 -10 10 -27 -6 -12 -29
-40 -50 -63 -22 -23 -39 -47 -39 -52 0 -6 23 -13 51 -17 59 -8 72 0 117 71 24
38 30 43 55 37 l28 -6 -25 37 c-14 19 -32 56 -42 81 -11 28 -20 41 -24 33 -6
-9 -16 -9 -39 -1 -29 10 -33 9 -41 -14z"/>
<path d="M861 125 c-58 -101 -59 -105 -36 -105 14 0 39 13 57 29 30 27 33 35
38 105 3 42 4 76 3 76 -1 0 -28 -47 -62 -105z"/>
<path d="M51 95 c1 -40 1 -40 11 -12 7 21 7 32 -1 40 -8 8 -11 0 -10 -28z"/>
<path d="M522 83 c-15 -6 -6 -23 14 -23 8 0 14 7 14 15 0 15 -6 17 -28 8z"/>
</g>
</svg>
